<svg width="16" height="16" viewBox="0 0 16 16" fill="none" xmlns="http://www.w3.org/2000/svg">
  <path d="M14.816 0H1.18C0.528 0 0 0.516 0 1.153v13.694C0 15.484 0.528 16 1.18 16h13.636c0.652 0 1.184-0.516 1.184-1.153V1.153C16 0.516 15.468 0 14.816 0zM4.744 13.636H2.371V5.996h2.373v7.64zM3.557 4.955c-0.762 0-1.376-0.617-1.376-1.377 0-0.759 0.614-1.376 1.376-1.376 0.76 0 1.376 0.617 1.376 1.376C4.933 4.338 4.317 4.955 3.557 4.955zM13.636 13.636h-2.37V9.921c0-0.884-0.015-2.02-1.23-2.02-1.231 0-1.42 0.961-1.42 1.956v3.779H6.266V5.996h2.274v1.05h0.031c0.318-0.6 1.092-1.233 2.247-1.233 2.4 0 2.845 1.58 2.845 3.637v4.186z" fill="currentColor"/>
</svg>
